<?xml version="1.0" encoding="UTF-8" standalone="no"?>
<!DOCTYPE svg PUBLIC "-//W3C//DTD SVG 1.1//EN" "http://www.w3.org/Graphics/SVG/1.1/DTD/svg11.dtd">
<!-- Oprettet af Microsoft Visio, SVG-eksport workflownewsvg.svg Page-1 -->
<svg xmlns="http://www.w3.org/2000/svg" xmlns:xlink="http://www.w3.org/1999/xlink" xmlns:ev="http://www.w3.org/2001/xml-events"
		xmlns:v="http://schemas.microsoft.com/visio/2003/SVGExtensions/" width="6.69611in" height="3.13831in"
		viewBox="0 0 482.12 225.959" xml:space="preserve" color-interpolation-filters="sRGB" class="st13">
	<v:documentProperties v:langID="1030" v:metric="true" v:viewMarkup="false">
		<v:userDefs>
			<v:ud v:nameU="msvNoAutoConnect" v:val="VT0(1):26"/>
			<v:ud v:nameU="msvSubprocessMaster" v:prompt="" v:val="VT4(Multiple process)"/>
		</v:userDefs>
	</v:documentProperties>

	<style type="text/css">
	<![CDATA[
		.st1 {visibility:visible}
		.st2 {fill:#5b9bd5;fill-opacity:0.22;filter:url(#filter_2);stroke:#5b9bd5;stroke-opacity:0.22}
		.st3 {fill:#5b9bd5;stroke:#c8c8c8;stroke-width:0.25}
		.st4 {fill:#feffff;font-family:Calibri;font-size:0.666664em}
		.st5 {font-size:1em}
		.st6 {marker-end:url(#mrkr4-27);stroke:#5b9bd5;stroke-linecap:round;stroke-linejoin:round;stroke-width:1}
		.st7 {fill:#5b9bd5;fill-opacity:1;stroke:#5b9bd5;stroke-opacity:1;stroke-width:0.28409090909091}
		.st8 {fill:#ffffff;stroke:none;stroke-linecap:butt;stroke-width:7.2}
		.st9 {fill:#4f88bb;font-family:Calibri;font-size:0.666664em}
		.st10 {fill:#feffff;font-family:Calibri;font-size:0.583328em}
		.st11 {fill:none;stroke:none;stroke-width:0.25}
		.st12 {fill:#5b9bd5;font-family:Calibri;font-size:0.666664em}
		.st13 {fill:none;fill-rule:evenodd;font-size:12px;overflow:visible;stroke-linecap:square;stroke-miterlimit:3}
	]]>
	</style>

	<defs id="Markers">
		<g id="lend4">
			<path d="M 2 1 L 0 0 L 2 -1 L 2 1 " style="stroke:none"/>
		</g>
		<marker id="mrkr4-27" class="st7" v:arrowType="4" v:arrowSize="2" v:setback="7.04" refX="-7.04" orient="auto"
				markerUnits="strokeWidth" overflow="visible">
			<use xlink:href="#lend4" transform="scale(-3.52,-3.52) "/>
		</marker>
	</defs>
	<defs id="Filters">
		<filter id="filter_2">
			<feGaussianBlur stdDeviation="2"/>
		</filter>
	</defs>
	<g v:mID="0" v:index="1" v:groupContext="foregroundPage">
		<v:userDefs>
			<v:ud v:nameU="msvThemeOrder" v:val="VT0(0):26"/>
		</v:userDefs>
		<title>Side-1</title>
		<v:pageProperties v:drawingScale="0.0393701" v:pageScale="0.0393701" v:drawingUnits="24" v:shadowOffsetX="8.50394"
				v:shadowOffsetY="-8.50394"/>
		<v:layer v:name="Rutediagram" v:index="0"/>
		<v:layer v:name="Forbindelse" v:index="1"/>
		<g id="shape1-1" v:mID="1" v:groupContext="shape" v:layerMember="0" transform="translate(21.0294,-149.864)">
			<title>Dataproces</title>
			<desc>1: Java class file</desc>
			<v:custProps>
				<v:cp v:nameU="Cost" v:lbl="Omkostninger" v:type="7" v:format="@" v:langID="1030"/>
				<v:cp v:nameU="Duration" v:lbl="Varighed" v:type="2" v:langID="1030"/>
				<v:cp v:nameU="Resources" v:lbl="Ressourcer" v:langID="1030"/>
			</v:custProps>
			<v:userDefs>
				<v:ud v:nameU="visVersion" v:val="VT0(15):26"/>
			</v:userDefs>
			<v:textBlock v:margins="rect(1,1,1,1)" v:tabSpace="42.5197"/>
			<v:textRect cx="28.3465" cy="197.612" width="56.7" height="56.6929"/>
			<g id="shadow1-2" v:groupContext="shadow" v:shadowOffsetX="0.345598" v:shadowOffsetY="-1.97279" v:shadowType="1"
					transform="matrix(1,0,0,1,0.345598,1.97279)" class="st1">
				<path d="M0 197.61 A28.3465 28.3465 0 1 1 56.69 197.61 A28.3465 28.3465 0 0 1 0 197.61 Z" class="st2"/>
			</g>
			<path d="M0 197.61 A28.3465 28.3465 0 1 1 56.69 197.61 A28.3465 28.3465 0 0 1 0 197.61 Z" class="st3"/>
			<text x="25.25" y="195.21" class="st4" v:langID="1030"><v:paragraph v:horizAlign="1"/><v:tabList/>1:<v:lf/><tspan
						x="6.92" dy="1.2em" class="st5">Java class file</tspan></text>		</g>
		<g id="shape2-8" v:mID="2" v:groupContext="shape" v:layerMember="0" transform="translate(148.588,-149.864)">
			<title>Dataproces.2</title>
			<desc>2: Protected code</desc>
			<v:custProps>
				<v:cp v:nameU="Cost" v:lbl="Omkostninger" v:type="7" v:format="@" v:langID="1030"/>
				<v:cp v:nameU="Duration" v:lbl="Varighed" v:type="2" v:langID="1030"/>
				<v:cp v:nameU="Resources" v:lbl="Ressourcer" v:langID="1030"/>
			</v:custProps>
			<v:userDefs>
				<v:ud v:nameU="visVersion" v:val="VT0(15):26"/>
			</v:userDefs>
			<v:textBlock v:margins="rect(1,1,1,1)" v:tabSpace="42.5197"/>
			<v:textRect cx="28.3465" cy="197.612" width="56.7" height="56.6929"/>
			<g id="shadow2-9" v:groupContext="shadow" v:shadowOffsetX="0.345598" v:shadowOffsetY="-1.97279" v:shadowType="1"
					transform="matrix(1,0,0,1,0.345598,1.97279)" class="st1">
				<path d="M0 197.61 A28.3465 28.3465 0 1 1 56.69 197.61 A28.3465 28.3465 0 0 1 0 197.61 Z" class="st2"/>
			</g>
			<path d="M0 197.61 A28.3465 28.3465 0 1 1 56.69 197.61 A28.3465 28.3465 0 0 1 0 197.61 Z" class="st3"/>
			<text x="25.25" y="195.21" class="st4" v:langID="1030"><v:paragraph v:horizAlign="1"/><v:tabList/>2:<v:lf/><tspan
						x="3.53" dy="1.2em" class="st5">Protected code</tspan></text>		</g>
		<g id="shape3-15" v:mID="3" v:groupContext="shape" v:layerMember="0" transform="translate(276.148,-149.864)">
			<title>Dataproces.3</title>
			<desc>3: UPPAAL model</desc>
			<v:custProps>
				<v:cp v:nameU="Cost" v:lbl="Omkostninger" v:type="7" v:format="@" v:langID="1030"/>
				<v:cp v:nameU="Duration" v:lbl="Varighed" v:type="2" v:langID="1030"/>
				<v:cp v:nameU="Resources" v:lbl="Ressourcer" v:langID="1030"/>
			</v:custProps>
			<v:userDefs>
				<v:ud v:nameU="visVersion" v:val="VT0(15):26"/>
			</v:userDefs>
			<v:textBlock v:margins="rect(1,1,1,1)" v:tabSpace="42.5197"/>
			<v:textRect cx="28.3465" cy="197.612" width="56.7" height="56.6929"/>
			<g id="shadow3-16" v:groupContext="shadow" v:shadowOffsetX="0.345598" v:shadowOffsetY="-1.97279" v:shadowType="1"
					transform="matrix(1,0,0,1,0.345598,1.97279)" class="st1">
				<path d="M0 197.61 A28.3465 28.3465 0 1 1 56.69 197.61 A28.3465 28.3465 0 0 1 0 197.61 Z" class="st2"/>
			</g>
			<path d="M0 197.61 A28.3465 28.3465 0 1 1 56.69 197.61 A28.3465 28.3465 0 0 1 0 197.61 Z" class="st3"/>
			<text x="25.25" y="195.21" class="st4" v:langID="1030"><v:paragraph v:horizAlign="1"/><v:tabList/>3:<v:lf/><tspan
						x="4.12" dy="1.2em" class="st5">UPPAAL model</tspan></text>		</g>
		<g id="shape6-22" v:mID="6" v:groupContext="shape" v:layerMember="1" transform="translate(77.7223,-171.123)">
			<title>Dynamisk forbindelse</title>
			<desc>Static analysis, Rewriting</desc>
			<v:textBlock v:margins="rect(4,4,4,4)" v:tabSpace="42.5197"/>
			<v:textRect cx="35.4331" cy="218.872" width="57.13" height="27.2035"/>
			<path d="M0 218.87 L63.83 218.87" class="st6"/>
			<rect v:rectContext="textBkgnd" x="11.7792" y="209.272" width="47.308" height="19.1997" class="st8"/>
			<text x="11.78" y="216.47" class="st9" v:langID="1030"><v:paragraph v:horizAlign="1"/><v:tabList/>Static analysis,<v:newlineChar/><tspan
						x="19.86" dy="1.2em" class="st5">Rewriting</tspan></text>		</g>
		<g id="shape7-31" v:mID="7" v:groupContext="shape" v:layerMember="1" transform="translate(205.281,-171.123)">
			<title>Dynamisk forbindelse.7</title>
			<desc>Conversion</desc>
			<v:textBlock v:margins="rect(4,4,4,4)" v:tabSpace="42.5197"/>
			<v:textRect cx="35.4331" cy="218.872" width="46.27" height="17.6036"/>
			<path d="M0 218.87 L63.83 218.87" class="st6"/>
			<rect v:rectContext="textBkgnd" x="17.2047" y="214.072" width="36.457" height="9.59985" class="st8"/>
			<text x="17.2" y="221.27" class="st9" v:langID="1030"><v:paragraph v:horizAlign="1"/><v:tabList/>Conversion</text>		</g>
		<g id="shape16-38" v:mID="16" v:groupContext="shape" v:layerMember="0" transform="translate(403.707,-149.864)">
			<title>Dataproces.16</title>
			<desc>4: UPPAAL model &#38; fault model</desc>
			<v:custProps>
				<v:cp v:nameU="Cost" v:lbl="Omkostninger" v:type="7" v:format="@" v:langID="1030"/>
				<v:cp v:nameU="Duration" v:lbl="Varighed" v:type="2" v:langID="1030"/>
				<v:cp v:nameU="Resources" v:lbl="Ressourcer" v:langID="1030"/>
			</v:custProps>
			<v:userDefs>
				<v:ud v:nameU="visVersion" v:val="VT0(15):26"/>
			</v:userDefs>
			<v:textBlock v:margins="rect(1,1,1,1)" v:tabSpace="42.5197"/>
			<v:textRect cx="28.3465" cy="197.612" width="56.7" height="56.6929"/>
			<g id="shadow16-39" v:groupContext="shadow" v:shadowOffsetX="0.345598" v:shadowOffsetY="-1.97279" v:shadowType="1"
					transform="matrix(1,0,0,1,0.345598,1.97279)" class="st1">
				<path d="M0 197.61 A28.3465 28.3465 0 1 1 56.69 197.61 A28.3465 28.3465 0 0 1 0 197.61 Z" class="st2"/>
			</g>
			<path d="M0 197.61 A28.3465 28.3465 0 1 1 56.69 197.61 A28.3465 28.3465 0 0 1 0 197.61 Z" class="st3"/>
			<text x="25.25" y="190.41" class="st4" v:langID="1030"><v:paragraph v:horizAlign="1"/><v:tabList/>4:<v:lf/><tspan
						x="4.12" dy="1.2em" class="st5">UPPAAL model </tspan><tspan x="6" dy="1.2em" class="st5">&#38; fault model</tspan></text>		</g>
		<g id="shape17-46" v:mID="17" v:groupContext="shape" v:layerMember="1" transform="translate(332.84,-171.123)">
			<title>Dynamisk forbindelse.17</title>
			<desc>Modification</desc>
			<v:textBlock v:margins="rect(4,4,4,4)" v:tabSpace="42.5197"/>
			<v:textRect cx="35.4331" cy="218.872" width="51.34" height="17.6036"/>
			<path d="M0 218.87 L63.83 218.87" class="st6"/>
			<rect v:rectContext="textBkgnd" x="14.6698" y="214.072" width="41.5267" height="9.59985" class="st8"/>
			<text x="14.67" y="221.27" class="st9" v:langID="1030"><v:paragraph v:horizAlign="1"/><v:tabList/>Modification</text>		</g>
		<g id="shape26-53" v:mID="26" v:groupContext="shape" v:layerMember="0" transform="translate(339.986,-23.3478)">
			<title>Dataproces.26</title>
			<desc>5: Recommendation</desc>
			<v:custProps>
				<v:cp v:nameU="Cost" v:lbl="Omkostninger" v:type="7" v:format="@" v:langID="1030"/>
				<v:cp v:nameU="Duration" v:lbl="Varighed" v:type="2" v:langID="1030"/>
				<v:cp v:nameU="Resources" v:lbl="Ressourcer" v:langID="1030"/>
			</v:custProps>
			<v:userDefs>
				<v:ud v:nameU="visVersion" v:val="VT0(15):26"/>
			</v:userDefs>
			<v:textBlock v:margins="rect(1,1,1,1)" v:tabSpace="42.5197"/>
			<v:textRect cx="28.3465" cy="197.612" width="56.7" height="56.6929"/>
			<g id="shadow26-54" v:groupContext="shadow" v:shadowOffsetX="0.345598" v:shadowOffsetY="-1.97279" v:shadowType="1"
					transform="matrix(1,0,0,1,0.345598,1.97279)" class="st1">
				<path d="M0 197.61 A28.3465 28.3465 0 1 1 56.69 197.61 A28.3465 28.3465 0 0 1 0 197.61 Z" class="st2"/>
			</g>
			<path d="M0 197.61 A28.3465 28.3465 0 1 1 56.69 197.61 A28.3465 28.3465 0 0 1 0 197.61 Z" class="st3"/>
			<text x="25.64" y="195.51" class="st10" v:langID="1030"><v:paragraph v:horizAlign="1"/><v:tabList/>5:<v:lf/><tspan
						x="3.03" dy="1.2em" class="st5">Recommendation</tspan></text>		</g>
		<g id="shape27-60" v:mID="27" v:groupContext="shape" v:layerMember="1" transform="translate(304.494,-149.864)">
			<title>Dynamisk forbindelse.27</title>
			<path d="M0 225.96 L0 324.13 L28.45 324.13" class="st6"/>
		</g>
		<g id="shape28-65" v:mID="28" v:groupContext="shape" v:layerMember="1" transform="translate(432.053,-149.864)">
			<title>Dynamisk forbindelse.28</title>
			<path d="M0 225.96 L0 324.13 L-28.33 324.13" class="st6"/>
		</g>
		<g id="shape29-70" v:mID="29" v:groupContext="shape" transform="translate(74.7086,174.264) rotate(-90)">
			<title>Ark.29</title>
			<desc>Property verification</desc>
			<v:textBlock v:margins="rect(1,1,1,1)" v:tabSpace="42.5197"/>
			<v:textRect cx="49" cy="220.959" width="98" height="10"/>
			<rect x="0" y="215.959" width="98" height="10" class="st11"/>
			<text x="15.56" y="223.36" class="st12" v:langID="1030"><v:paragraph v:horizAlign="1"/><v:tabList/>Property verification</text>		</g>
		<g id="shape31-73" v:mID="31" v:groupContext="shape" transform="translate(219.354,173.052) rotate(-90)">
			<title>Ark.31</title>
			<desc>Property verification</desc>
			<v:textBlock v:margins="rect(1,1,1,1)" v:tabSpace="42.5197"/>
			<v:textRect cx="49" cy="220.959" width="98" height="10"/>
			<rect x="0" y="215.959" width="98" height="10" class="st11"/>
			<text x="15.56" y="223.36" class="st12" v:langID="1030"><v:paragraph v:horizAlign="1"/><v:tabList/>Property verification</text>		</g>
	</g>
</svg>
